<svg width="12" height="9" viewBox="0 0 12 9" fill="none" xmlns="http://www.w3.org/2000/svg">
<path d="M11.2168 0.770012C11.3981 0.943125 11.5 1.17779 11.5 1.42245C11.5 1.66712 11.3981 1.90178 11.2168 2.07489L4.75987 8.22999C4.57827 8.40289 4.3321 8.5 4.07544 8.5C3.81878 8.5 3.57261 8.40289 3.39101 8.22999L0.808262 5.76795C0.713104 5.68343 0.636781 5.5815 0.583845 5.46824C0.530909 5.35499 0.502445 5.23273 0.500151 5.10877C0.497856 4.9848 0.521778 4.86166 0.57049 4.7467C0.619202 4.63174 0.691706 4.52731 0.783676 4.43963C0.875646 4.35196 0.985199 4.28285 1.1058 4.23641C1.2264 4.18998 1.35557 4.16717 1.48562 4.16936C1.61566 4.17155 1.74391 4.19868 1.86272 4.24914C1.98153 4.2996 2.08845 4.37236 2.17712 4.46307L4.07544 6.27267L9.84789 0.770012C10.0295 0.597115 10.2757 0.5 10.5323 0.5C10.789 0.5 11.0352 0.597115 11.2168 0.770012Z" fill="#7D72CB"/>
</svg>
