<svg width="12" height="8" viewBox="0 0 12 8" fill="none" xmlns="http://www.w3.org/2000/svg">
<path d="M11.2168 0.270012C11.3981 0.443125 11.5 0.677786 11.5 0.922452C11.5 1.16712 11.3981 1.40178 11.2168 1.57489L4.75987 7.72999C4.57827 7.90289 4.3321 8 4.07544 8C3.81878 8 3.57261 7.90289 3.39101 7.72999L0.808262 5.26795C0.713104 5.18343 0.636781 5.0815 0.583845 4.96824C0.530909 4.85499 0.502445 4.73273 0.500151 4.60877C0.497856 4.4848 0.521778 4.36166 0.57049 4.2467C0.619202 4.13174 0.691706 4.02731 0.783676 3.93963C0.875646 3.85196 0.985199 3.78285 1.1058 3.73641C1.2264 3.68998 1.35557 3.66717 1.48562 3.66936C1.61566 3.67155 1.74391 3.69868 1.86272 3.74914C1.98153 3.7996 2.08845 3.87236 2.17712 3.96307L4.07544 5.77267L9.84789 0.270012C10.0295 0.0971149 10.2757 0 10.5323 0C10.789 0 11.0352 0.0971149 11.2168 0.270012Z" fill="#03E39E"/>
</svg>
