<svg width="16" height="17" viewBox="0 0 16 17" fill="none" xmlns="http://www.w3.org/2000/svg">
<g id="solar:check-square-bold-duotone">
<g id="Group">
<path id="Vector" opacity="0.2" d="M8.00016 15.1667C4.8575 15.1667 3.28616 15.1667 2.3095 14.19C1.3335 13.2147 1.3335 11.6427 1.3335 8.50004C1.3335 5.35737 1.3335 3.78604 2.3095 2.80937C3.28683 1.83337 4.8575 1.83337 8.00016 1.83337C11.1428 1.83337 12.7142 1.83337 13.6902 2.80937C14.6668 3.78671 14.6668 5.35737 14.6668 8.50004C14.6668 11.6427 14.6668 13.214 13.6902 14.19C12.7148 15.1667 11.1428 15.1667 8.00016 15.1667Z" fill="#7D72CB"/>
<path id="Vector_2" d="M11.794 5.70251C11.9259 5.83234 12 6.00834 12 6.19184C12 6.37534 11.9259 6.55133 11.794 6.68117L7.09809 11.2975C6.96602 11.4272 6.78698 11.5 6.60032 11.5C6.41366 11.5 6.23463 11.4272 6.10256 11.2975L4.22419 9.45096C4.15498 9.38757 4.09948 9.31112 4.06098 9.22618C4.02248 9.14124 4.00178 9.04955 4.00011 8.95657C3.99844 8.8636 4.01584 8.77125 4.05127 8.68502C4.08669 8.5988 4.13942 8.52048 4.20631 8.45473C4.2732 8.38897 4.35287 8.33713 4.44058 8.30231C4.52829 8.26748 4.62223 8.25038 4.71681 8.25202C4.81139 8.25366 4.90466 8.27401 4.99107 8.31186C5.07747 8.3497 5.15524 8.40427 5.21972 8.4723L6.60032 9.8295L10.7985 5.70251C10.9305 5.57284 11.1096 5.5 11.2962 5.5C11.4829 5.5 11.6619 5.57284 11.794 5.70251Z" fill="#7D72CB"/>
</g>
</g>
</svg>
