<svg width="10" height="10" viewBox="0 0 10 10" fill="none" xmlns="http://www.w3.org/2000/svg">
<g id="solar:lock-keyhole-minimalistic-bold-duotone" opacity="0.5" clip-path="url(#clip0_904_6958)">
<g id="Group">
<path id="Vector" opacity="0.5" d="M0.833344 6.66663C0.833344 5.48829 0.833343 4.89871 1.19959 4.53288C1.56543 4.16663 2.15501 4.16663 3.33334 4.16663H6.66668C7.84501 4.16663 8.43459 4.16663 8.80043 4.53288C9.16668 4.89871 9.16668 5.48829 9.16668 6.66663C9.16668 7.84496 9.16668 8.43454 8.80043 8.80038C8.43459 9.16663 7.84501 9.16663 6.66668 9.16663H3.33334C2.15501 9.16663 1.56543 9.16663 1.19959 8.80038C0.833343 8.43454 0.833344 7.84496 0.833344 6.66663Z" fill="white"/>
<path id="Vector_2" d="M5.3125 5.83331C5.3125 5.75043 5.27958 5.67095 5.22097 5.61234C5.16237 5.55374 5.08288 5.52081 5 5.52081C4.91712 5.52081 4.83763 5.55374 4.77903 5.61234C4.72042 5.67095 4.6875 5.75043 4.6875 5.83331V7.49998C4.6875 7.58286 4.72042 7.66235 4.77903 7.72095C4.83763 7.77956 4.91712 7.81248 5 7.81248C5.08288 7.81248 5.16237 7.77956 5.22097 7.72095C5.27958 7.66235 5.3125 7.58286 5.3125 7.49998V5.83331ZM2.8125 3.33331C2.8125 2.75315 3.04297 2.19675 3.4532 1.78652C3.86344 1.37628 4.41984 1.14581 5 1.14581C5.58016 1.14581 6.13656 1.37628 6.5468 1.78652C6.95703 2.19675 7.1875 2.75315 7.1875 3.33331V4.16831C7.42375 4.1704 7.63083 4.17581 7.8125 4.18915V3.33331C7.8125 2.58739 7.51618 1.87202 6.98874 1.34458C6.46129 0.817129 5.74592 0.520813 5 0.520813C4.25408 0.520813 3.53871 0.817129 3.01126 1.34458C2.48382 1.87202 2.1875 2.58739 2.1875 3.33331V4.18956C2.39555 4.17585 2.60399 4.16876 2.8125 4.16831V3.33331Z" fill="white"/>
</g>
</g>
<defs>
<clipPath id="clip0_904_6958">
<rect width="10" height="10" fill="white"/>
</clipPath>
</defs>
</svg>
